<svg width="26" height="26" viewBox="0 0 26 26" fill="none" xmlns="http://www.w3.org/2000/svg">
<circle cx="13" cy="13" r="12.65" fill="white" stroke="#333333" stroke-width="0.7"/>
<path d="M15.2754 19.1492V20.5261C15.2754 20.8899 15.1283 21.2401 14.8662 21.4988C14.604 21.7574 14.2477 21.9041 13.875 21.9041H12.125C11.7523 21.9041 11.396 21.7574 11.1338 21.4988C10.8717 21.2401 10.7246 20.8899 10.7246 20.5261V19.1492H15.2754ZM9.22852 4.71948C8.62691 6.23418 8.27539 8.12534 8.27539 10.1628C8.2754 11.4072 8.40602 12.8082 8.64258 14.0984C8.78681 14.885 8.9723 15.6407 9.19531 16.2996C8.50845 15.6766 7.90018 14.7737 7.4209 13.741C6.73979 12.2733 6.3497 10.6136 6.34961 9.29956C6.34961 8.0027 6.72953 7.01894 7.375 6.22632C7.84966 5.64348 8.47754 5.15386 9.22852 4.71948ZM16.7705 4.71948C17.5218 5.15397 18.1502 5.64329 18.625 6.22632C19.2705 7.01894 19.6504 8.0027 19.6504 9.29956C19.6503 10.6136 19.2602 12.2733 18.5791 13.741C18.0997 14.774 17.4908 15.6766 16.8037 16.2996C17.0268 15.6407 17.2132 14.8851 17.3574 14.0984C17.594 12.8082 17.7246 11.4072 17.7246 10.1628C17.7246 8.12519 17.3722 6.23424 16.7705 4.71948ZM10.7246 16.1667L10.7158 16.1267C10.1753 13.8635 9.84962 12.0904 9.84961 10.1628C9.84961 7.43203 10.4933 5.08409 11.4141 3.78979C11.926 3.6692 12.4518 3.60327 13 3.60327C13.5479 3.60327 14.0733 3.66934 14.585 3.78979C15.5059 5.084 16.1504 7.4317 16.1504 10.1628C16.1504 12.0904 15.8247 13.8635 15.2842 16.1267L15.2754 16.1667V16.2078C15.2754 16.5716 15.1283 16.9218 14.8662 17.1804C14.604 17.4391 14.2477 17.5857 13.875 17.5857H12.125C11.7523 17.5857 11.396 17.4391 11.1338 17.1804C10.8717 16.9218 10.7246 16.5716 10.7246 16.2078V16.1667Z" fill="#333333" stroke="#333333" stroke-width="0.7"/>
</svg>
